<svg width="26" height="26" viewBox="0 0 26 26" fill="none" xmlns="http://www.w3.org/2000/svg">
<path d="M19.705 11.9987C19.6488 11.7625 19.5138 11.5262 19.3338 11.4362C19.2775 11.4137 18.94 11.38 18.58 11.3575C17.9725 11.335 17.905 11.3237 17.7138 11.2C17.4213 11.0312 17.3313 10.8287 17.3313 10.3225C17.3313 9.3325 16.915 8.39875 16.0938 7.56625C15.5088 6.97 14.8675 6.565 14.1138 6.34C13.945 6.295 13.2138 6.25 11.875 6.25C9.62501 6.25 9.65876 6.2725 8.95001 6.55375C7.63376 7.0825 6.68876 8.185 6.35126 9.6025C6.29501 9.86125 6.27251 10.2888 6.26126 12.73C6.23876 15.7788 6.26126 16.2287 6.45251 16.8362C6.92501 18.3325 8.26376 19.435 9.59126 19.6825C10.0413 19.7613 15.5425 19.7837 16.0938 19.705C17.0838 19.57 17.8375 19.1762 18.5575 18.4337C19.0863 17.905 19.4125 17.3313 19.6263 16.5663C19.7838 16.0375 19.7725 12.2687 19.705 11.9987ZM10.4913 9.625H13.0698C13.5479 9.625 13.936 10.0131 13.936 10.4913C13.936 10.9694 13.5479 11.3575 13.0698 11.3575H10.4913C10.0131 11.3575 9.62501 10.9694 9.62501 10.4913C9.62501 10.0131 10.0131 9.625 10.4913 9.625ZM15.2973 16.375H10.4913C10.0131 16.375 9.62501 15.9869 9.62501 15.5087C9.62501 15.0306 10.0131 14.6425 10.4913 14.6425H15.2973C15.7754 14.6425 16.1635 15.0306 16.1635 15.5087C16.1635 15.9869 15.7754 16.375 15.2973 16.375Z" fill="white"/>
<rect x="2" y="2" width="22" height="22" rx="5.5" stroke="white" stroke-width="3"/>
</svg>
